HIERARCHY
ROOT Hips
{
	OFFSET -3.958830 18.904000 13.208200
	CHANNELS 6 Xposition Yposition Zposition Zrotation Yrotation Xrotation 
	JOINT LHipJoint
	{
		OFFSET 0.000000 0.000000 0.000000
		CHANNELS 3 Zrotation Yrotation Xrotation
		JOINT LeftUpLeg
		{
			OFFSET 1.800000 -1.400000 0.085000
			CHANNELS 3 Zrotation Yrotation Xrotation
			JOINT LeftLeg
			{
				OFFSET 2.215000 -6.000000 0.000000
				CHANNELS 3 Zrotation Yrotation Xrotation
				JOINT LeftFoot
				{
					OFFSET 2.500000 -6.900000 0.000000
					CHANNELS 3 Zrotation Yrotation Xrotation
					JOINT LeftToeBase
					{
						OFFSET 0.200000 -0.500000 1.950000
						CHANNELS 3 Zrotation Yrotation Xrotation
						End Site
						{
							OFFSET 0.000000 0.000000 0.000000
						}
					}
				}
			}
		}
	}
	JOINT RHipJoint
	{
		OFFSET 0.000000 0.000000 0.000000
		CHANNELS 3 Zrotation Yrotation Xrotation
		JOINT RightUpLeg
		{
			OFFSET -1.800000 -1.400000 0.085000
			CHANNELS 3 Zrotation Yrotation Xrotation
			JOINT RightLeg
			{
				OFFSET -2.215000 -6.000000 0.000000
				CHANNELS 3 Zrotation Yrotation Xrotation
				JOINT RightFoot
				{
					OFFSET -2.500000 -6.900000 0.000000
					CHANNELS 3 Zrotation Yrotation Xrotation
					JOINT RightToeBase
					{
						OFFSET -0.200000 -0.500000 1.950000
						CHANNELS 3 Zrotation Yrotation Xrotation
						End Site
						{
							OFFSET 0.000000 0.000000 0.000000
						}
					}
				}
			}
		}
	}
	JOINT LowerBack
	{
		OFFSET 0.000000 0.000000 0.000000
		CHANNELS 3 Zrotation Yrotation Xrotation
		JOINT Spine
		{
			OFFSET -0.087000 1.940000 -0.288900
			CHANNELS 3 Zrotation Yrotation Xrotation
			JOINT Spine1
			{
				OFFSET 0.000000 1.950000 0.060000
				CHANNELS 3 Zrotation Yrotation Xrotation
				JOINT Neck
				{
					OFFSET 0.000000 0.000000 0.000000
					CHANNELS 3 Zrotation Yrotation Xrotation
					JOINT Neck1
					{
						OFFSET 0.000000 1.600000 0.340000
						CHANNELS 3 Zrotation Yrotation Xrotation
						JOINT Head
						{
							OFFSET 0.000000 1.667000 -0.240000
							CHANNELS 3 Zrotation Yrotation Xrotation
							End Site
							{
								OFFSET 0.000000 0.000000 0.000000
							}
						}
					}
				}
				JOINT LeftShoulder
				{
					OFFSET 0.000000 0.000000 0.000000
					CHANNELS 3 Zrotation Yrotation Xrotation
					JOINT LeftArm
					{
						OFFSET 2.700000 1.550000 -0.730000
						CHANNELS 3 Zrotation Yrotation Xrotation
						JOINT LeftForeArm
						{
							OFFSET 5.450000 0.000000 0.000000
							CHANNELS 3 Zrotation Yrotation Xrotation
							JOINT LeftHand
							{
								OFFSET 3.450000 0.000000 0.000000
								CHANNELS 3 Zrotation Yrotation Xrotation
								JOINT LeftHandIndex1
								{
									OFFSET 0.750000 0.000000 0.000000
									CHANNELS 3 Zrotation Yrotation Xrotation
									End Site
									{
										OFFSET 0.000000 0.000000 0.000000
									}
								}
							}
						}
					}
				}
				JOINT RightShoulder
				{
					OFFSET 0.000000 0.000000 0.000000
					CHANNELS 3 Zrotation Yrotation Xrotation
					JOINT RightArm
					{
						OFFSET -2.700000 1.550000 -0.730000
						CHANNELS 3 Zrotation Yrotation Xrotation
						JOINT RightForeArm
						{
							OFFSET -5.450000 0.000000 0.000000
							CHANNELS 3 Zrotation Yrotation Xrotation
							JOINT RightHand
							{
								OFFSET -3.450000 0.000000 0.000000
								CHANNELS 3 Zrotation Yrotation Xrotation
								JOINT RightHandIndex1
								{
									OFFSET -0.750000 0.000000 0.000000
									CHANNELS 3 Zrotation Yrotation Xrotation
									End Site
									{
										OFFSET 0.000000 0.000000 0.000000
									}
								}
							}
						}
					}
				}
			}
		}
	}
}
MOTION
Frames: 7
Frame Time: 0.016667
-0.214520 16.398440 -0.515170 -1.414202 0.299296 -2.374090 -15.127695 13.204846 3.396829 1.096730 -0.017506 -3.262890 -7.876993 4.250054 -0.365583 -0.678475 4.899157 3.351833 0.002060 -0.127100 -0.206340 18.303344 -10.989526 2.596745 -1.128754 2.284558 -14.423475 2.603241 -4.218759 20.703255 0.277788 -4.209182 2.967788 0.443610 1.253850 0.290670 -3.693251 -1.436981 -7.562027 11.321798 -4.079208 16.872181 -7.387481 -0.074489 2.086167 2.304044 -1.512696 -7.594448 -2.218697 3.757453 20.493160 -4.963390 1.419510 2.875410 5.521672 -7.135195 -0.836423 29.204615 -16.720756 -9.344063 82.442234 20.951056 12.726545 -5.170736 3.352810 -0.309110 1.001210 -0.787840 0.252570 -10.172509 9.590290 3.286190 -21.073157 9.017472 -12.149126 -110.823611 -25.572798 28.974267 2.356086 -2.570605 -0.568690 0.518070 0.341340 0.044440 
-0.214610 16.401070 -0.530210 -1.578811 -0.099095 -2.610002 -15.114611 13.175520 3.385178 1.195245 0.019317 -3.089904 -7.789849 4.245909 -0.431262 -0.747161 4.965674 3.324804 -0.024300 -0.150510 -0.228740 18.321068 -11.004934 2.609724 -0.811268 2.306519 -14.098334 2.306720 -4.117883 20.536901 0.295973 -4.230708 2.946855 0.467710 1.292750 0.287560 -3.729888 -1.346511 -7.549165 11.689967 -4.130058 17.181379 -7.661925 -0.049581 2.322304 2.284247 -1.467083 -7.505105 -2.060833 4.126123 19.900938 -5.062210 1.615130 2.711710 5.723034 -7.068848 -0.990873 29.846124 -16.647525 -9.228133 79.526159 20.267790 11.280046 -5.237419 3.324840 -0.312010 1.035260 -0.821830 0.231960 -10.334150 9.516614 3.266345 -20.899944 9.595701 -12.259757 -109.890886 -24.756013 27.086936 2.309782 -2.560576 -0.611140 0.549490 0.389120 0.030250 
-0.213390 16.399960 -0.560810 -1.459341 1.073922 -2.964436 -15.127982 13.168344 3.373173 1.582431 0.013598 -3.067911 -8.367492 4.349532 -0.224675 -0.706221 4.993742 3.296168 0.037730 -0.103750 -0.165570 18.310970 -10.999249 2.570136 -1.454182 2.157957 -13.802459 3.012576 -4.354110 20.443029 0.254198 -4.277408 2.901997 0.474260 1.229770 0.316020 -3.717243 -1.373941 -7.520346 11.462313 -4.006149 17.052659 -7.139898 -0.371805 3.696087 2.036069 -1.305233 -7.659034 -1.795832 3.479581 19.798097 -5.129610 1.185840 2.441320 5.162067 -8.378003 -0.692887 32.090341 -15.725750 -9.554146 73.178976 19.814630 9.260363 -5.199432 3.355390 -0.304270 0.998280 -0.780510 0.235930 -9.200825 10.487520 3.497233 -22.316818 8.232983 -12.310528 -106.611814 -22.598255 22.800217 2.297448 -2.576771 -0.561320 0.497940 0.345870 0.024640 
-0.212890 16.404810 -0.602560 -1.373230 2.044486 -3.317535 -15.133079 13.176485 3.314322 1.647092 -0.002304 -3.384826 -8.295236 4.422844 0.656375 -0.749965 4.957121 3.275472 0.123930 -0.013980 -0.104610 18.310510 -11.011838 2.540341 -1.916725 2.038827 -13.646916 3.508600 -4.566402 20.601142 0.194235 -4.330309 2.838383 0.524970 1.174610 0.340800 -3.726699 -1.382307 -7.447299 11.238331 -3.711407 16.792570 -6.456590 -0.716672 5.434029 1.639229 -1.067283 -7.636312 -1.392459 3.062343 19.379433 -4.993530 0.684520 1.217600 5.472439 -9.274259 -0.527473 33.749849 -15.736277 -9.875316 65.554708 19.616835 7.054783 -5.187234 3.351972 -0.271650 0.959880 -0.727540 0.246350 -8.618387 10.902052 3.465506 -23.165709 7.503092 -12.272855 -101.277883 -19.200235 16.495366 2.250689 -2.580475 -0.529590 0.488150 0.315600 0.015800 
-0.215390 16.412760 -0.641150 -1.321168 2.760563 -3.441154 -15.108702 13.133384 3.223368 1.540527 -0.070292 -4.007858 -7.929585 4.451827 1.794588 -0.797910 4.803976 3.284049 0.271850 0.185200 -0.021560 18.342831 -11.077804 2.520782 -2.119862 1.910364 -13.781145 3.701052 -4.675091 20.919507 0.146202 -4.391356 2.790461 0.641360 1.098230 0.337670 -3.820897 -1.201918 -7.333795 11.304088 -3.518160 15.999800 -6.226427 -1.145881 7.024924 1.283808 -0.793775 -7.164375 -0.862410 2.874502 18.675054 -4.862570 0.382760 0.077460 5.661439 -9.347386 -0.815125 35.379028 -17.191897 -10.066397 57.383007 18.271112 4.492922 -5.142512 3.374088 -0.294080 0.930830 -0.683300 0.275840 -8.004500 10.465278 3.064536 -24.163108 8.453706 -11.779081 -93.813229 -14.750336 9.501423 2.195171 -2.615683 -0.472410 0.470040 0.229670 0.020500 
-0.220510 16.430360 -0.685980 -1.226254 2.681560 -4.229590 -15.068209 13.112230 3.154619 1.376016 -0.027856 -3.905823 -7.298453 4.480092 2.882657 -0.854633 4.723586 3.282807 0.378630 0.333610 0.039520 18.380710 -11.188757 2.497227 -2.348148 1.789191 -13.620176 3.603483 -4.867206 22.085490 0.080967 -4.526754 2.720204 0.734270 1.053660 0.330060 -3.933598 -0.984384 -7.252143 11.474071 -3.651342 16.170829 -6.656051 -1.512304 8.354744 1.073146 -0.663117 -6.854128 -0.596372 3.238523 18.315483 -4.554440 0.429770 -1.278010 6.429859 -9.248952 -1.051707 36.038385 -17.777785 -9.663536 49.500894 15.804349 2.019748 -5.120073 3.333362 -0.279190 0.904880 -0.635820 0.299080 -8.271141 10.131768 2.798416 -24.580739 10.576506 -11.606422 -85.024066 -10.650080 3.691733 2.148345 -2.595667 -0.450370 0.494290 0.177830 0.020720 
-0.220830 16.446670 -0.730900 -1.524933 2.614945 -4.757420 -15.015610 13.083799 3.064634 1.444870 -0.110897 -4.255126 -6.612331 4.488610 4.166989 -0.935342 4.630308 3.288451 0.474510 0.468980 0.108300 18.431807 -11.295334 2.497615 -2.092621 1.782069 -13.787253 3.329301 -5.072574 23.847444 0.019480 -4.689673 2.645711 0.829150 1.012880 0.309120 -4.082207 -0.746306 -7.168219 12.502297 -3.862956 15.940831 -7.399796 -1.641079 9.393812 1.097951 -0.831460 -6.372728 -0.778821 3.178976 18.016301 -4.769800 0.256610 -2.533230 7.352307 -8.651634 -1.543553 35.665448 -20.135692 -9.200694 42.829143 12.924618 0.094599 -5.085768 3.270949 -0.267940 0.887380 -0.597740 0.311460 -9.229175 9.445840 2.400991 -25.682385 12.780856 -10.945147 -73.544944 -6.502857 -0.812562 2.112266 -2.552048 -0.442980 0.535700 0.132210 0.011490 
